<svg width="29" height="29" viewBox="0 0 29 29" fill="none" xmlns="http://www.w3.org/2000/svg">
<path fillRule="evenodd" clipRule="evenodd" d="M28.6351 28.6452C28.7476 28.533 28.8368 28.3997 28.8977 28.253C28.9586 28.1062 28.9899 27.9489 28.9899 27.7901C28.9899 27.6312 28.9586 27.4739 28.8977 27.3272C28.8368 27.1805 28.7476 27.0472 28.6351 26.935L2.06438 0.364254C1.8376 0.137468 1.53001 0.0100632 1.20929 0.0100632C0.888564 0.0100632 0.580977 0.137468 0.354191 0.364254C0.127406 0.59104 0 0.898626 0 1.21935C0 1.54007 0.127406 1.84766 0.354191 2.07444L26.9249 28.6452C27.0371 28.7576 27.1704 28.8469 27.3171 28.9078C27.4639 28.9687 27.6212 29 27.78 29C27.9389 29 28.0962 28.9687 28.2429 28.9078C28.3896 28.8469 28.5229 28.7576 28.6351 28.6452Z" fill="#0E2050"/>
<path fillRule="evenodd" clipRule="evenodd" d="M0.354825 28.6452C0.24235 28.533 0.153114 28.3997 0.0922277 28.253C0.031341 28.1062 0 27.9489 0 27.7901C0 27.6312 0.031341 27.4739 0.0922277 27.3272C0.153114 27.1805 0.24235 27.0472 0.354825 26.935L26.9256 0.364254C27.1523 0.137468 27.4599 0.0100632 27.7807 0.0100632C28.1014 0.0100632 28.409 0.137468 28.6357 0.364254C28.8625 0.59104 28.9899 0.898626 28.9899 1.21935C28.9899 1.54007 28.8625 1.84766 28.6357 2.07444L2.06501 28.6452C1.95282 28.7576 1.81955 28.8469 1.67281 28.9078C1.52608 28.9687 1.36878 29 1.20992 29C1.05106 29 0.893756 28.9687 0.747024 28.9078C0.600293 28.8469 0.467015 28.7576 0.354825 28.6452Z" fill="#0E2050"/>
</svg>
